<svg width="26" height="26" viewBox="0 0 26 26" fill="none" xmlns="http://www.w3.org/2000/svg">
    <path
        d="M1 8.5H25L23.7475 22.2715C23.6798 23.0169 23.3359 23.71 22.7833 24.2148C22.2307 24.7197 21.5094 24.9997 20.761 25H5.239C4.49056 24.9997 3.76925 24.7197 3.2167 24.2148C2.66414 23.71 2.32023 23.0169 2.2525 22.2715L1 8.5Z"
        stroke="black" stroke-linejoin="round" />
    <path
        d="M7 11.5V7C7 5.4087 7.63214 3.88258 8.75736 2.75736C9.88258 1.63214 11.4087 1 13 1C14.5913 1 16.1174 1.63214 17.2426 2.75736C18.3679 3.88258 19 5.4087 19 7V11.5"
        stroke="black" stroke-linecap="round" />
</svg>
