<svg width="18" height="21" viewBox="0 0 18 21" fill="none" xmlns="http://www.w3.org/2000/svg">
    <path
        d="M14.6311 7.76986H15.3859V8.19297C14.8977 10.5887 14.5397 13.0283 14.5397 15.474V16.2322H13.7688M14.6311 7.76986C14.8342 6.49374 15.0711 5.2227 15.3419 3.95673C15.3707 3.81965 15.3859 3.67917 15.3859 3.5387H2.69246C2.69246 3.67917 2.7077 3.81965 2.73647 3.95673C3.00726 5.2227 3.24421 6.49374 3.4473 7.76986H14.6311ZM13.7688 16.2322C13.7186 17.3496 13.6935 18.4681 13.6935 19.5866V20.4633H4.38493V19.5866C4.38493 18.4671 4.35954 17.3492 4.30961 16.2322M13.7688 16.2322H4.30961M4.30961 16.2322H3.5387V15.474C3.5387 13.0283 3.18074 10.5887 2.69246 8.19297V7.76986H3.44646M1 3.5387V3.11558L1.49589 2.86763C2.26209 2.4845 2.8447 1.81269 3.11558 1H14.9628C15.2337 1.81269 15.8163 2.4845 16.5825 2.86763L17.0784 3.11558V3.5387H1Z"
        stroke="black" stroke-width="0.846232" />
</svg>
