<svg width="25" height="25" viewBox="0 0 25 25" fill="none" xmlns="http://www.w3.org/2000/svg">
    <path
        d="M21.34 5.10999C20.8292 4.599 20.2228 4.19364 19.5554 3.91708C18.8879 3.64052 18.1725 3.49817 17.45 3.49817C16.7275 3.49817 16.0121 3.64052 15.3446 3.91708C14.6772 4.19364 14.0708 4.599 13.56 5.10999L12.5 6.16999L11.44 5.10999C10.4083 4.0783 9.00903 3.4987 7.55 3.4987C6.09096 3.4987 4.69169 4.0783 3.66 5.10999C2.6283 6.14169 2.04871 7.54096 2.04871 8.99999C2.04871 10.459 2.6283 11.8583 3.66 12.89L4.72 13.95L12.5 21.73L20.28 13.95L21.34 12.89C21.851 12.3792 22.2563 11.7728 22.5329 11.1053C22.8095 10.4379 22.9518 9.72248 22.9518 8.99999C22.9518 8.27751 22.8095 7.5621 22.5329 6.89464C22.2563 6.22718 21.851 5.62075 21.34 5.10999Z"
        stroke="black" stroke-width="1.5" stroke-linecap="round" stroke-linejoin="round" />
</svg>
