<svg width="25" height="24" viewBox="0 0 25 24" fill="none" xmlns="http://www.w3.org/2000/svg">
    <path
        d="M13.1075 5.47499C12.938 5.33074 12.7226 5.25153 12.5 5.25153C12.2774 5.25153 12.062 5.33074 11.8925 5.47499L4.58 11.691C4.47646 11.7791 4.39332 11.8886 4.33634 12.0121C4.27936 12.1355 4.2499 12.2698 4.25 12.4057V22.125C4.25 22.2245 4.28951 22.3198 4.35984 22.3902C4.43016 22.4605 4.52554 22.5 4.625 22.5H8.375C8.47446 22.5 8.56984 22.4605 8.64017 22.3902C8.71049 22.3198 8.75 22.2245 8.75 22.125V16.875C8.75 16.3777 8.94754 15.9008 9.29917 15.5492C9.65081 15.1975 10.1277 15 10.625 15H14.378C14.6242 15 14.868 15.0485 15.0955 15.1427C15.323 15.2369 15.5297 15.3751 15.7038 15.5492C15.8779 15.7233 16.016 15.93 16.1103 16.1575C16.2045 16.3849 16.253 16.6288 16.253 16.875V22.125C16.253 22.2245 16.2925 22.3198 16.3628 22.3902C16.4332 22.4605 16.5285 22.5 16.628 22.5H20.375C20.4745 22.5 20.5698 22.4605 20.6402 22.3902C20.7105 22.3198 20.75 22.2245 20.75 22.125V12.405C20.75 12.2692 20.7205 12.135 20.6635 12.0117C20.6065 11.8884 20.5234 11.779 20.42 11.691L13.1075 5.47499ZM10.9213 4.33274C11.362 3.95809 11.9216 3.75238 12.5 3.75238C13.0784 3.75238 13.638 3.95809 14.0787 4.33274L21.3912 10.548C21.6604 10.7768 21.8766 11.0614 22.0249 11.382C22.1732 11.7027 22.25 12.0517 22.25 12.405V22.125C22.25 22.6223 22.0525 23.0992 21.7008 23.4508C21.3492 23.8025 20.8723 24 20.375 24H16.628C16.1307 24 15.6538 23.8025 15.3022 23.4508C14.9505 23.0992 14.753 22.6223 14.753 22.125V16.875C14.753 16.7755 14.7135 16.6802 14.6432 16.6098C14.5728 16.5395 14.4775 16.5 14.378 16.5H10.625C10.5255 16.5 10.4302 16.5395 10.3598 16.6098C10.2895 16.6802 10.25 16.7755 10.25 16.875V22.125C10.25 22.6223 10.0525 23.0992 9.70083 23.4508C9.34919 23.8025 8.87228 24 8.375 24H4.625C4.12772 24 3.65081 23.8025 3.29917 23.4508C2.94754 23.0992 2.75 22.6223 2.75 22.125V12.405C2.75002 12.0517 2.82683 11.7027 2.97511 11.382C3.12339 11.0614 3.33959 10.7768 3.60875 10.548L10.9213 4.33274Z"
        fill="black" />
</svg>
