<svg width="20" height="20" viewBox="0 0 20 20" fill="none" xmlns="http://www.w3.org/2000/svg">
<path d="M3.92205 8.03691H16.0778C16.2146 8.03776 16.3498 8.00785 16.4735 7.94939C16.5971 7.89094 16.706 7.80544 16.7922 7.69921C16.8783 7.59298 16.9395 7.46875 16.9712 7.33569C17.0028 7.20264 17.0042 7.06417 16.9751 6.93053C16.7173 5.71388 15.868 4.59761 14.5829 3.79539C13.2978 2.99316 11.6812 2.56201 9.99995 2.56201C8.3187 2.56201 6.69144 3 5.417 3.79539C4.14257 4.59077 3.28255 5.71084 3.02477 6.93053C2.99571 7.06417 2.99706 7.20264 3.02872 7.33569C3.06038 7.46875 3.12155 7.59298 3.2077 7.69921C3.29385 7.80544 3.40278 7.89094 3.52643 7.94939C3.65007 8.00785 3.78528 8.03776 3.92205 8.03691ZM3.61789 7.05675C4.08858 4.84322 6.83135 3.17033 9.99995 3.17033C13.1685 3.17033 15.9113 4.84322 16.3805 7.05675C16.3902 7.10164 16.3897 7.14815 16.3789 7.19279C16.3681 7.23744 16.3473 7.27906 16.3181 7.31453C16.2893 7.3505 16.2527 7.37946 16.2111 7.39922C16.1695 7.41898 16.1239 7.42902 16.0778 7.42859H3.92205C3.87597 7.42902 3.8304 7.41898 3.78878 7.39922C3.74715 7.37946 3.71056 7.3505 3.68176 7.31453C3.65258 7.27906 3.63181 7.23744 3.62101 7.19279C3.61021 7.14815 3.60966 7.10164 3.61941 7.05675H3.61789ZM17.8024 12.3134L14.5662 13.4905L11.6325 12.3172C11.5594 12.2876 11.4776 12.2876 11.4044 12.3172L8.47914 13.4882L5.55083 12.3172C5.48082 12.2904 5.40337 12.2904 5.33336 12.3172L1.98758 13.5339C1.92275 13.5599 1.86886 13.6075 1.83497 13.6686C1.80108 13.7296 1.78925 13.8005 1.80147 13.8693C1.81369 13.9381 1.84922 14.0006 1.90209 14.0463C1.95495 14.0919 2.02193 14.118 2.09176 14.1201C2.12727 14.1201 2.16251 14.1139 2.19593 14.1019L3.61256 13.5879V14.4243C3.61256 15.1503 3.90097 15.8466 4.41434 16.36C4.92772 16.8733 5.624 17.1617 6.35001 17.1617H13.6499C14.3759 17.1617 15.0722 16.8733 15.5855 16.36C16.0989 15.8466 16.3873 15.1503 16.3873 14.4243V13.4761L18.0123 12.8852C18.0881 12.8576 18.1499 12.801 18.184 12.7278C18.2181 12.6547 18.2217 12.571 18.194 12.4952C18.1664 12.4193 18.1098 12.3576 18.0366 12.3235C17.9635 12.2894 17.8798 12.2858 17.804 12.3134H17.8024ZM15.779 14.4243C15.779 14.989 15.5547 15.5305 15.1554 15.9298C14.7561 16.3291 14.2146 16.5534 13.6499 16.5534H6.35001C5.78533 16.5534 5.24378 16.3291 4.84449 15.9298C4.4452 15.5305 4.22089 14.989 4.22089 14.4243V13.3651L5.43221 12.9248L8.36584 14.0981C8.439 14.1277 8.5208 14.1277 8.59396 14.0981L11.5208 12.9271L14.4491 14.0981C14.5191 14.1249 14.5965 14.1249 14.6665 14.0981L15.779 13.6973V14.4243ZM1.7876 10.166C1.7876 10.0854 1.81964 10.008 1.87668 9.95096C1.93373 9.89392 2.01109 9.86188 2.09176 9.86188H17.9081C17.9888 9.86188 18.0662 9.89392 18.1232 9.95096C18.1803 10.008 18.2123 10.0854 18.2123 10.166C18.2123 10.2467 18.1803 10.3241 18.1232 10.3811C18.0662 10.4382 17.9888 10.4702 17.9081 10.4702H2.09176C2.01109 10.4702 1.93373 10.4382 1.87668 10.3811C1.81964 10.3241 1.7876 10.2467 1.7876 10.166Z" fill="black"/>
</svg>
